M48
;Layer_Color=9474304
;FILE_FORMAT=4:4
METRIC,LZ
;TYPE=PLATED
T1F00S00C0.3000
T2F00S00C0.7000
T4F00S00C1.1000
T5F00S00C1.2000
;TYPE=NON_PLATED
T6F00S00C1.2000
T7F00S00C3.0000
%
T01
X002661Y001818
Y001943
Y002068
Y002218
Y002368
Y002593
X003661Y001043
X003911
X002661Y002718
Y002843
Y003043
X002911Y003093
X002836Y004018
X003711Y004143
X002411Y003918
X00235Y0034
X002175Y00355
X001925Y003275
X001136Y002868
Y002743
X000475Y003425
T02
X00056178Y0025325
Y0030175
T04
X000377Y000193
X000631
X000885
X001139
X003933
X004187
X004441
X004695
Y004893
X004441
X004187
X003933
X001139
X000885
X000631
X000377
T05
X00025Y000511
X000504
X000758
X001012
X001266
X00152
X001774
X002028
X002282
X000275Y001746
Y002
X002536Y000511
X00279
X003044
X003298
X003552
X003806
X00406
X004314
X004568
X004822
Y004575
X004568
X004314
X00406
X003806
X003552
X003298
X003044
X00279
X002536
X002663Y004257
X002917
X003171
X002409
X002155
X001901
X002028Y004575
X002282
X001774
X00152
X001266
X001012
X000758
X000504
X00025
T06
X000475Y00158601
T07
X004736Y001243
M30
