G04 Layer_Color=16711935*
%FSLAX44Y44*%
%MOMM*%
G71*
G01*
G75*
%ADD32C,0.5000*%
%ADD72C,2.0032*%
%ADD73R,2.0032X2.0032*%
%ADD74C,1.4032*%
%ADD75C,5.0000*%
%ADD76R,1.9032X1.9032*%
%ADD77C,1.9032*%
%ADD78R,2.0032X2.0032*%
%ADD79C,1.5032*%
%ADD80O,2.4032X1.5032*%
%ADD81C,0.8032*%
G36*
X504819Y381028D02*
X495980D01*
X504819Y376206D01*
Y374938D01*
X493577D01*
Y376107D01*
X502449D01*
X493577Y380962D01*
Y382197D01*
X504819D01*
Y381028D01*
D02*
G37*
G36*
X497577Y392303D02*
X497462Y392105D01*
X497346Y391891D01*
X497231Y391710D01*
X497132Y391546D01*
X497050Y391430D01*
X496984Y391348D01*
X496968Y391315D01*
X496787Y391085D01*
X496606Y390871D01*
X496441Y390690D01*
X496310Y390542D01*
X496178Y390426D01*
X496096Y390328D01*
X496030Y390278D01*
X496013Y390262D01*
X504819D01*
Y389143D01*
X493528D01*
Y389883D01*
X493808Y389999D01*
X494071Y390163D01*
X494334Y390328D01*
X494565Y390492D01*
X494762Y390640D01*
X494911Y390772D01*
X495009Y390854D01*
X495026Y390871D01*
X495042Y390887D01*
X495322Y391167D01*
X495569Y391447D01*
X495799Y391710D01*
X495980Y391974D01*
X496129Y392188D01*
X496244Y392369D01*
X496293Y392434D01*
X496326Y392467D01*
X496343Y392500D01*
Y392517D01*
X497676D01*
X497577Y392303D01*
D02*
G37*
G36*
X504819Y363088D02*
X500935D01*
X499141Y361590D01*
X504819Y358298D01*
Y356685D01*
X498153Y360734D01*
X493577Y356866D01*
Y358496D01*
X499157Y363088D01*
X493577D01*
Y364306D01*
X504819D01*
Y363088D01*
D02*
G37*
G36*
Y365952D02*
X503486D01*
Y371614D01*
X499667D01*
Y366495D01*
X498334D01*
Y371614D01*
X494911D01*
Y366166D01*
X493577D01*
Y372831D01*
X504819D01*
Y365952D01*
D02*
G37*
G36*
Y408894D02*
X503486D01*
Y413420D01*
X503222Y413272D01*
X503091Y413190D01*
X502976Y413107D01*
X502877Y413041D01*
X502811Y412992D01*
X502762Y412959D01*
X502745Y412943D01*
X502663Y412877D01*
X502580Y412794D01*
X502366Y412613D01*
X502136Y412399D01*
X501889Y412186D01*
X501675Y411972D01*
X501494Y411807D01*
X501428Y411741D01*
X501379Y411692D01*
X501346Y411659D01*
X501330Y411642D01*
X501033Y411362D01*
X500737Y411083D01*
X500474Y410852D01*
X500227Y410638D01*
X499996Y410441D01*
X499782Y410260D01*
X499585Y410095D01*
X499404Y409963D01*
X499239Y409848D01*
X499108Y409749D01*
X498992Y409667D01*
X498894Y409601D01*
X498811Y409552D01*
X498762Y409519D01*
X498729Y409486D01*
X498713D01*
X498334Y409289D01*
X497972Y409157D01*
X497626Y409058D01*
X497314Y408976D01*
X497050Y408943D01*
X496935Y408927D01*
X496836D01*
X496754Y408910D01*
X496425D01*
X496211Y408943D01*
X495799Y409025D01*
X495437Y409141D01*
X495108Y409272D01*
X494845Y409420D01*
X494746Y409486D01*
X494647Y409536D01*
X494581Y409585D01*
X494532Y409618D01*
X494499Y409634D01*
X494483Y409651D01*
X494318Y409799D01*
X494170Y409947D01*
X494038Y410112D01*
X493923Y410293D01*
X493841Y410474D01*
X493758Y410638D01*
X493643Y410984D01*
X493577Y411297D01*
X493561Y411445D01*
X493544Y411560D01*
X493528Y411659D01*
Y411725D01*
Y411774D01*
Y411791D01*
X493544Y412021D01*
X493561Y412251D01*
X493660Y412663D01*
X493791Y413008D01*
X493939Y413321D01*
X494088Y413552D01*
X494153Y413650D01*
X494219Y413733D01*
X494269Y413798D01*
X494318Y413848D01*
X494334Y413864D01*
X494351Y413881D01*
X494515Y414012D01*
X494697Y414144D01*
X495075Y414358D01*
X495487Y414506D01*
X495882Y414621D01*
X496063Y414671D01*
X496227Y414704D01*
X496392Y414737D01*
X496524Y414753D01*
X496639Y414770D01*
X496721Y414786D01*
X496787D01*
X496935Y413617D01*
X496556Y413601D01*
X496211Y413535D01*
X495931Y413453D01*
X495684Y413354D01*
X495503Y413272D01*
X495371Y413190D01*
X495289Y413124D01*
X495256Y413107D01*
X495059Y412910D01*
X494911Y412696D01*
X494812Y412465D01*
X494729Y412268D01*
X494697Y412087D01*
X494680Y411939D01*
X494664Y411840D01*
Y411823D01*
Y411807D01*
X494680Y411544D01*
X494746Y411297D01*
X494828Y411083D01*
X494927Y410902D01*
X495042Y410754D01*
X495125Y410655D01*
X495190Y410573D01*
X495207Y410556D01*
X495421Y410391D01*
X495651Y410260D01*
X495882Y410177D01*
X496112Y410112D01*
X496310Y410079D01*
X496458Y410046D01*
X496606D01*
X496886Y410062D01*
X497182Y410128D01*
X497445Y410210D01*
X497692Y410293D01*
X497906Y410391D01*
X498071Y410474D01*
X498136Y410507D01*
X498186Y410540D01*
X498202Y410556D01*
X498219D01*
X498383Y410655D01*
X498564Y410787D01*
X498762Y410935D01*
X498960Y411083D01*
X499371Y411428D01*
X499766Y411791D01*
X499947Y411955D01*
X500128Y412120D01*
X500276Y412268D01*
X500408Y412383D01*
X500523Y412498D01*
X500605Y412580D01*
X500655Y412630D01*
X500671Y412646D01*
X500918Y412893D01*
X501165Y413124D01*
X501395Y413321D01*
X501609Y413519D01*
X501807Y413683D01*
X502004Y413848D01*
X502186Y413979D01*
X502350Y414095D01*
X502498Y414193D01*
X502630Y414292D01*
X502745Y414358D01*
X502844Y414424D01*
X502926Y414473D01*
X502976Y414490D01*
X503008Y414523D01*
X503025D01*
X503387Y414687D01*
X503716Y414819D01*
X504029Y414901D01*
X504292Y414951D01*
X504506Y414983D01*
X504671Y415000D01*
X504819D01*
Y408894D01*
D02*
G37*
G36*
X499848Y407692D02*
X500375Y407676D01*
X500852Y407626D01*
X501297Y407577D01*
X501708Y407511D01*
X502070Y407445D01*
X502399Y407379D01*
X502679Y407297D01*
X502926Y407215D01*
X503140Y407149D01*
X503321Y407083D01*
X503469Y407017D01*
X503585Y406968D01*
X503650Y406918D01*
X503700Y406902D01*
X503716Y406886D01*
X503947Y406721D01*
X504144Y406556D01*
X504309Y406375D01*
X504457Y406194D01*
X504589Y406013D01*
X504687Y405832D01*
X504770Y405651D01*
X504835Y405487D01*
X504934Y405174D01*
X504967Y405042D01*
X504983Y404927D01*
Y404845D01*
X505000Y404779D01*
Y404729D01*
Y404713D01*
X504983Y404450D01*
X504934Y404186D01*
X504868Y403956D01*
X504770Y403742D01*
X504671Y403544D01*
X504539Y403347D01*
X504408Y403182D01*
X504276Y403034D01*
X504144Y402902D01*
X504012Y402787D01*
X503881Y402688D01*
X503782Y402623D01*
X503683Y402557D01*
X503617Y402508D01*
X503568Y402491D01*
X503552Y402475D01*
X503255Y402343D01*
X502943Y402211D01*
X502613Y402113D01*
X502268Y402030D01*
X501560Y401882D01*
X501198Y401833D01*
X500869Y401800D01*
X500540Y401767D01*
X500243Y401734D01*
X499963Y401717D01*
X499733D01*
X499536Y401701D01*
X499272D01*
X498713Y401717D01*
X498186Y401734D01*
X497692Y401783D01*
X497248Y401849D01*
X496836Y401915D01*
X496458Y401997D01*
X496112Y402080D01*
X495816Y402162D01*
X495552Y402244D01*
X495339Y402326D01*
X495141Y402409D01*
X494993Y402475D01*
X494861Y402540D01*
X494779Y402590D01*
X494729Y402606D01*
X494713Y402623D01*
X494499Y402771D01*
X494318Y402935D01*
X494170Y403100D01*
X494022Y403265D01*
X493907Y403446D01*
X493824Y403610D01*
X493742Y403791D01*
X493676Y403956D01*
X493594Y404252D01*
X493561Y404384D01*
X493544Y404499D01*
X493528Y404581D01*
Y404647D01*
Y404697D01*
Y404713D01*
X493544Y404976D01*
X493594Y405240D01*
X493660Y405470D01*
X493758Y405684D01*
X493874Y405882D01*
X493989Y406079D01*
X494120Y406244D01*
X494252Y406392D01*
X494400Y406524D01*
X494532Y406639D01*
X494647Y406738D01*
X494762Y406803D01*
X494861Y406869D01*
X494927Y406918D01*
X494976Y406935D01*
X494993Y406951D01*
X495273Y407083D01*
X495585Y407198D01*
X495931Y407297D01*
X496277Y407396D01*
X496984Y407528D01*
X497330Y407577D01*
X497676Y407610D01*
X498005Y407643D01*
X498301Y407676D01*
X498564Y407692D01*
X498811D01*
X499009Y407709D01*
X499272D01*
X499848Y407692D01*
D02*
G37*
G36*
X504819Y394574D02*
X503486D01*
Y399100D01*
X503222Y398952D01*
X503091Y398870D01*
X502976Y398788D01*
X502877Y398722D01*
X502811Y398672D01*
X502762Y398640D01*
X502745Y398623D01*
X502663Y398557D01*
X502580Y398475D01*
X502366Y398294D01*
X502136Y398080D01*
X501889Y397866D01*
X501675Y397652D01*
X501494Y397487D01*
X501428Y397422D01*
X501379Y397372D01*
X501346Y397339D01*
X501330Y397323D01*
X501033Y397043D01*
X500737Y396763D01*
X500474Y396533D01*
X500227Y396319D01*
X499996Y396121D01*
X499782Y395940D01*
X499585Y395776D01*
X499404Y395644D01*
X499239Y395529D01*
X499108Y395430D01*
X498992Y395348D01*
X498894Y395282D01*
X498811Y395233D01*
X498762Y395200D01*
X498729Y395167D01*
X498713D01*
X498334Y394969D01*
X497972Y394837D01*
X497626Y394739D01*
X497314Y394656D01*
X497050Y394623D01*
X496935Y394607D01*
X496836D01*
X496754Y394591D01*
X496425D01*
X496211Y394623D01*
X495799Y394706D01*
X495437Y394821D01*
X495108Y394953D01*
X494845Y395101D01*
X494746Y395167D01*
X494647Y395216D01*
X494581Y395265D01*
X494532Y395298D01*
X494499Y395315D01*
X494483Y395331D01*
X494318Y395479D01*
X494170Y395628D01*
X494038Y395792D01*
X493923Y395973D01*
X493841Y396154D01*
X493758Y396319D01*
X493643Y396665D01*
X493577Y396977D01*
X493561Y397125D01*
X493544Y397240D01*
X493528Y397339D01*
Y397405D01*
Y397454D01*
Y397471D01*
X493544Y397701D01*
X493561Y397932D01*
X493660Y398343D01*
X493791Y398689D01*
X493939Y399002D01*
X494088Y399232D01*
X494153Y399331D01*
X494219Y399413D01*
X494269Y399479D01*
X494318Y399528D01*
X494334Y399545D01*
X494351Y399561D01*
X494515Y399693D01*
X494697Y399825D01*
X495075Y400039D01*
X495487Y400187D01*
X495882Y400302D01*
X496063Y400351D01*
X496227Y400384D01*
X496392Y400417D01*
X496524Y400434D01*
X496639Y400450D01*
X496721Y400466D01*
X496787D01*
X496935Y399298D01*
X496556Y399282D01*
X496211Y399216D01*
X495931Y399133D01*
X495684Y399035D01*
X495503Y398952D01*
X495371Y398870D01*
X495289Y398804D01*
X495256Y398788D01*
X495059Y398590D01*
X494911Y398376D01*
X494812Y398146D01*
X494729Y397948D01*
X494697Y397767D01*
X494680Y397619D01*
X494664Y397520D01*
Y397504D01*
Y397487D01*
X494680Y397224D01*
X494746Y396977D01*
X494828Y396763D01*
X494927Y396582D01*
X495042Y396434D01*
X495125Y396335D01*
X495190Y396253D01*
X495207Y396236D01*
X495421Y396072D01*
X495651Y395940D01*
X495882Y395858D01*
X496112Y395792D01*
X496310Y395759D01*
X496458Y395726D01*
X496606D01*
X496886Y395743D01*
X497182Y395809D01*
X497445Y395891D01*
X497692Y395973D01*
X497906Y396072D01*
X498071Y396154D01*
X498136Y396187D01*
X498186Y396220D01*
X498202Y396236D01*
X498219D01*
X498383Y396335D01*
X498564Y396467D01*
X498762Y396615D01*
X498960Y396763D01*
X499371Y397109D01*
X499766Y397471D01*
X499947Y397636D01*
X500128Y397800D01*
X500276Y397948D01*
X500408Y398064D01*
X500523Y398179D01*
X500605Y398261D01*
X500655Y398310D01*
X500671Y398327D01*
X500918Y398574D01*
X501165Y398804D01*
X501395Y399002D01*
X501609Y399199D01*
X501807Y399364D01*
X502004Y399528D01*
X502186Y399660D01*
X502350Y399775D01*
X502498Y399874D01*
X502630Y399973D01*
X502745Y400039D01*
X502844Y400104D01*
X502926Y400154D01*
X502976Y400170D01*
X503008Y400203D01*
X503025D01*
X503387Y400368D01*
X503716Y400499D01*
X504029Y400582D01*
X504292Y400631D01*
X504506Y400664D01*
X504671Y400681D01*
X504819D01*
Y394574D01*
D02*
G37*
%LPC*%
G36*
X499536Y406573D02*
X498778D01*
X498334Y406556D01*
X497923Y406524D01*
X497560Y406491D01*
X497215Y406458D01*
X496918Y406408D01*
X496655Y406359D01*
X496425Y406310D01*
X496227Y406277D01*
X496063Y406227D01*
X495914Y406178D01*
X495799Y406145D01*
X495717Y406112D01*
X495668Y406079D01*
X495635Y406063D01*
X495618D01*
X495454Y405964D01*
X495305Y405849D01*
X495174Y405750D01*
X495059Y405635D01*
X494976Y405519D01*
X494894Y405421D01*
X494779Y405207D01*
X494713Y405042D01*
X494680Y404894D01*
X494664Y404795D01*
Y404779D01*
Y404762D01*
X494680Y404598D01*
X494697Y404450D01*
X494746Y404318D01*
X494812Y404186D01*
X494960Y403956D01*
X495125Y403742D01*
X495305Y403594D01*
X495454Y403479D01*
X495519Y403429D01*
X495569Y403396D01*
X495585Y403380D01*
X495602D01*
X495799Y403281D01*
X496030Y403199D01*
X496277Y403133D01*
X496556Y403067D01*
X497165Y402968D01*
X497774Y402902D01*
X498071Y402886D01*
X498350Y402870D01*
X498614Y402853D01*
X498828Y402837D01*
X499766D01*
X500210Y402853D01*
X500622Y402886D01*
X500984Y402919D01*
X501330Y402968D01*
X501626Y403001D01*
X501889Y403051D01*
X502120Y403100D01*
X502317Y403166D01*
X502482Y403215D01*
X502630Y403248D01*
X502729Y403298D01*
X502827Y403330D01*
X502877Y403363D01*
X502910Y403380D01*
X502926D01*
X503091Y403479D01*
X503239Y403594D01*
X503354Y403693D01*
X503469Y403808D01*
X503552Y403907D01*
X503634Y404022D01*
X503749Y404219D01*
X503815Y404400D01*
X503848Y404548D01*
X503864Y404647D01*
Y404664D01*
Y404680D01*
X503848Y404828D01*
X503831Y404976D01*
X503716Y405240D01*
X503568Y405487D01*
X503404Y405684D01*
X503239Y405832D01*
X503091Y405947D01*
X502976Y406013D01*
X502959Y406046D01*
X502943D01*
X502745Y406145D01*
X502515Y406227D01*
X502251Y406293D01*
X501972Y406343D01*
X501362Y406441D01*
X500754Y406507D01*
X500457Y406524D01*
X500177Y406540D01*
X499931Y406556D01*
X499717D01*
X499536Y406573D01*
D02*
G37*
%LPD*%
D32*
X478600Y-700D02*
G03*
X508600Y29300I0J30000D01*
G01*
Y479300D02*
G03*
X478600Y509300I-30000J0D01*
G01*
X28600D02*
G03*
X-1400Y479300I0J-30000D01*
G01*
Y29300D02*
G03*
X28600Y-700I30000J0D01*
G01*
X128600Y509300D02*
X161100Y476800D01*
X28600Y509300D02*
X128600D01*
X161100Y476800D02*
X346100D01*
X378600Y509300D02*
X478600D01*
X346100Y476800D02*
X378600Y509300D01*
X346100Y31800D02*
X378600Y-700D01*
X478600D01*
X161100Y31800D02*
X346100D01*
X28600Y-700D02*
X128600D01*
X161100Y31800D01*
X-1400Y29300D02*
Y479300D01*
X508600Y29300D02*
Y479300D01*
D72*
X27500Y200000D02*
D03*
X190100Y425700D02*
D03*
X215500D02*
D03*
X240900D02*
D03*
X266300D02*
D03*
X291700D02*
D03*
X456800Y51100D02*
D03*
X431400D02*
D03*
X406000D02*
D03*
X380600D02*
D03*
X355200D02*
D03*
X329800D02*
D03*
X304400D02*
D03*
X279000D02*
D03*
X253600D02*
D03*
X228200D02*
D03*
X202800D02*
D03*
X177400D02*
D03*
X152000D02*
D03*
X126600D02*
D03*
X101200D02*
D03*
X75800D02*
D03*
X50400D02*
D03*
X25000D02*
D03*
X456800Y457500D02*
D03*
X431400D02*
D03*
X406000D02*
D03*
X380600D02*
D03*
X355200D02*
D03*
X329800D02*
D03*
X304400D02*
D03*
X279000D02*
D03*
X253600D02*
D03*
X228200D02*
D03*
X202800D02*
D03*
X177400D02*
D03*
X152000D02*
D03*
X126600D02*
D03*
X101200D02*
D03*
X75800D02*
D03*
X50400D02*
D03*
X25000D02*
D03*
D73*
X27500Y174600D02*
D03*
D74*
X47500Y158601D02*
D03*
D75*
X473600Y124300D02*
D03*
D76*
X113900Y489300D02*
D03*
X469500Y19300D02*
D03*
X113900D02*
D03*
X469500Y489300D02*
D03*
D77*
X88500D02*
D03*
X63100D02*
D03*
X37700D02*
D03*
X444100Y19300D02*
D03*
X418700D02*
D03*
X393300D02*
D03*
X88500D02*
D03*
X63100D02*
D03*
X37700D02*
D03*
X444100Y489300D02*
D03*
X418700D02*
D03*
X393300D02*
D03*
D78*
X317100Y425700D02*
D03*
X482200Y51100D02*
D03*
Y457500D02*
D03*
D79*
X56178Y253250D02*
D03*
Y301750D02*
D03*
D80*
X29477Y313500D02*
D03*
Y241500D02*
D03*
D81*
X217500Y355000D02*
D03*
X235000Y340000D02*
D03*
X192500Y327500D02*
D03*
X47500Y342500D02*
D03*
X266100Y304300D02*
D03*
X371100Y414300D02*
D03*
X283600Y401800D02*
D03*
X241100Y391800D02*
D03*
X291100Y309300D02*
D03*
X113600Y286800D02*
D03*
X266100Y259300D02*
D03*
Y271800D02*
D03*
Y284300D02*
D03*
X113600Y274300D02*
D03*
X266100Y206800D02*
D03*
Y221800D02*
D03*
Y236800D02*
D03*
Y181800D02*
D03*
Y194300D02*
D03*
X391100Y104300D02*
D03*
X366100D02*
D03*
M02*
